<?xml version="1.0" encoding="UTF-8"?><svg xmlns="http://www.w3.org/2000/svg" xmlns:xlink="http://www.w3.org/1999/xlink" height="231.0" preserveAspectRatio="xMidYMid meet" version="1.0" viewBox="125.2 97.0 174.9 231.0" width="174.9" zoomAndPan="magnify"><g fill="none" stroke="#282727" stroke-linecap="round" stroke-linejoin="round" stroke-miterlimit="10" stroke-width="4"><circle cx="155.25" cy="200.41" r="28.1"/><circle cx="212.6" cy="200.41" r="28.1"/><circle cx="212.6" cy="297.88" r="28.1"/><circle cx="269.94" cy="200.41" r="28.1"/><circle cx="183.93" cy="249.19" r="28.1" transform="rotate(-45.001 183.923 249.193)"/><circle cx="241.27" cy="249.19" r="28.1" transform="rotate(-22.5 241.26 249.179)"/><path d="M136.56,198.54c1.89-5.66,5.93-10.57,11.12-13.52"/><path d="M193.52,195.31c1.89-5.66,5.93-10.57,11.12-13.52"/><path d="M254.31,193.32c1.89-5.66,5.93-10.57,11.12-13.52"/><path d="M165.54,244.02c1.89-5.66,5.93-10.57,11.12-13.52"/><path d="M226.33,242.03c1.89-5.66,5.93-10.57,11.12-13.52"/><path d="M193.52,292.94c1.89-5.66,5.93-10.57,11.12-13.52"/><path d="M212.6,172.31c0,0,6.99-23.74-19.07-48.85"/><path d="M209.93,147.04c-8.97-7.25-23.04-7.23-31.99,0.05c-2.6,2.11-5.28,5.45-5.47,9.08 c-0.2,3.83,2.86,8.43,7.18,7.65c5.97-1.08,6.45-9.11,4.51-13.53c-2.36-5.38-8.09-9.27-13.93-9.61c-8.38-0.49-16.25,4.81-21.1,11.66 c-2.46,3.47-4.83,14.46,2.62,13.43c7.08-0.98,4.22-13.55,1.29-17.33c-6.4-8.25-18.48-4.48-24.19,1.87"/><path d="M267.04,167.59c-1.58-7.22-6.88-12.75-11.04-15.62c12.62-3.67,21.76-15.34,22.63-28.87c0,0,0.13,0.31,0,0 c-10.1-9.06-24.9-11.23-36.47-5.01c0.97-4.97,0.88-12.62-3.05-18.88c-7.6,4.07-12.22,13.64-16.17,22.52 c-0.58-4.64-0.78-6.6-2.6-11.01c-7.21,11.16-7.52,23.95-2.48,36.71c0,0-0.01,0.01-0.01,0.01c0.04,0.1,0.09,0.2,0.13,0.3 c0.04,0.1,0.08,0.21,0.12,0.31l0.01-0.01c5.34,12.64,14.52,21.56,27.48,24.48c-1.79-4.43-3.01-5.97-5.85-9.69 C248.76,166.42,258.76,170.01,267.04,167.59z"/></g></svg>